# xmcd
# 
# Track frame offsets:
#     150
#     25379
#     47222
#     67364
#     89438
#     111421
#     135262
#     157964
# 
# Disc length: 2453
# 
# Revision: 1
# Processed by: cddbd v1.5.2PL0 Copyright (c) Steve Scherf et al.
# Submitted via: fre:ac v1.0.31
# 
DISCID=6e099308
DTITLE=相川七瀬 - The First Quarter
DYEAR=2005
DGENRE=Rock
TTITLE0=限りある響き
TTITLE1=万華鏡
TTITLE2=リアルな夢
TTITLE3=RADIANCE MOON
TTITLE4=DONMAI∞DONMAI
TTITLE5=I LOVE YOU
TTITLE6=SHARING OF LOVE
TTITLE7=祈り
EXTD=
EXTT0=
EXTT1=
EXTT2=
EXTT3=
EXTT4=
EXTT5=
EXTT6=
EXTT7=
PLAYORDER=
